# xmcd CD database file
#
# Track frame offsets:
#	183
#	14318
#	27915
#
# Disc length: 510 seconds
#
# Revision: 3
# Processed by: cddbd v1.4PL0 Copyright (c) Steve Scherf et al.
# Submitted via: CDex 1.40Beta9
#
DISCID=1801fc03
DTITLE=Die Toten Hosen and Roland Biggs - Carnival in Rio (Punk Was) (Maxi)
DYEAR=1991
DGENRE=Punk Rock
TTITLE0=Carnival In Rio (Punk Was)
TTITLE1=No One Is Innocent
TTITLE2=Police On My Back
EXTD=YEAR: 1991 ID3G: 121
EXTT0=
EXTT1=
EXTT2=
PLAYORDER=
